<svg width="30" height="8" viewBox="0 0 30 8" fill="none" xmlns="http://www.w3.org/2000/svg">
<path fill-rule="evenodd" clip-rule="evenodd" d="M27.9706 0.29112C26.9209 0.50678 24.3622 1.97214 21.7488 3.85777C20.8522 4.50475 21.224 5.15728 22.6509 4.173L24.4825 2.91218C28.3041 0.285562 30.1466 -0.029617 29.2882 2.11036C28.2057 4.81992 25.0073 6.27978 19.6056 6.5452C16.5221 6.69448 13.9251 6.25766 9.71535 4.84756C9.01007 4.60977 9.01554 4.64852 9.61147 4.25595C10.6284 3.58684 11.864 2.46985 12.367 1.77305C13.4003 0.340879 13.6354 -0.377934 12.1428 1.15932C11.033 2.29844 9.98871 3.13339 8.72577 3.90202L8.14077 4.26145L7.58311 4.03473C3.16008 2.27631 0 2.30395 0 4.10662C0 6.14707 4.63078 6.82719 7.86741 5.26231L8.55082 4.93607C8.75857 5.00245 10.2183 5.60512 13.5588 6.47882C19.2557 7.96631 25.9532 7.02078 28.6212 4.35547C30.737 2.24863 30.3379 -0.195465 27.9706 0.29112ZM3.592 3.41544C4.61438 3.55365 7.55031 4.38861 7.55031 4.54344C7.55031 4.5932 6.41858 5.07984 5.9976 5.20699C3.8927 5.84847 0.716218 5.41715 0.716218 4.48262C0.716218 3.60341 1.85341 3.18315 3.592 3.41544Z" fill="white"/>
</svg>
