<svg width="30" height="7" viewBox="0 0 30 7" fill="none" xmlns="http://www.w3.org/2000/svg">
<path fill-rule="evenodd" clip-rule="evenodd" d="M27.9706 0.063016C26.9209 0.280095 24.3622 1.7551 21.7488 3.65313C20.8522 4.30436 21.224 4.96119 22.6509 3.97043L24.4825 2.70132C28.3041 0.0574214 30.1466 -0.259831 29.2882 1.89422C28.2057 4.62162 25.0073 6.09108 19.6056 6.35825C16.5221 6.50851 13.9251 6.06881 9.71535 4.64943C9.01007 4.41008 9.01554 4.44908 9.61147 4.05393C10.6284 3.38042 11.864 2.25608 12.367 1.5547C13.4003 0.113103 13.6354 -0.610439 12.1428 0.936926C11.033 2.08354 9.98871 2.92399 8.72577 3.69767L8.14077 4.05947L7.58311 3.83126C3.16008 2.06127 0 2.08908 0 3.90361C0 5.9575 4.63078 6.64209 7.86741 5.06691L8.55082 4.73852C8.75857 4.80534 10.2183 5.41198 13.5588 6.29143C19.2557 7.78871 25.9532 6.83695 28.6212 4.1541C30.737 2.0334 30.3379 -0.42677 27.9706 0.063016ZM3.592 3.20789C4.61438 3.34701 7.55031 4.18746 7.55031 4.34331C7.55031 4.3934 6.41858 4.88324 5.9976 5.01123C3.8927 5.65692 0.716218 5.22276 0.716218 4.28209C0.716218 3.3971 1.85341 2.97408 3.592 3.20789Z" fill="#BE0615"/>
</svg>
