<svg xmlns="http://www.w3.org/2000/svg" width="126" height="176" viewBox="0 0 126 176" fill="none">
<path d="M123.414 62.7422L106.406 4.98438C106.025 3.69035 105.236 2.55435 104.156 1.74609C103.076 0.937829 101.763 0.500698 100.414 0.5H25.5861C24.2371 0.500698 22.9246 0.937829 21.8446 1.74609C20.7645 2.55435 19.975 3.69035 19.5939 4.98438L2.5861 62.7422C-0.0823327 71.5949 -0.221987 81.0175 2.18291 89.9455C4.58782 98.8734 9.44143 106.951 16.1955 113.266C27.3063 123.684 41.5811 130.088 56.7502 131.461V163H31.7502C30.0926 163 28.5029 163.658 27.3308 164.831C26.1586 166.003 25.5002 167.592 25.5002 169.25C25.5002 170.908 26.1586 172.497 27.3308 173.669C28.5029 174.842 30.0926 175.5 31.7502 175.5H94.2502C95.9078 175.5 97.4975 174.842 98.6696 173.669C99.8417 172.497 100.5 170.908 100.5 169.25C100.5 167.592 99.8417 166.003 98.6696 164.831C97.4975 163.658 95.9078 163 94.2502 163H69.2502V131.461C84.4196 130.089 98.6947 123.685 109.805 113.266C116.557 106.95 121.41 98.8723 123.815 89.9448C126.22 81.0172 126.081 71.5951 123.414 62.7422ZM30.258 13H95.7424L111.438 66.2734C111.508 66.5078 111.57 66.7422 111.633 66.9766C94.8986 72.9766 76.0548 65.7266 65.8283 60.5469C46.1486 50.5859 30.5236 49.3203 19.0002 51.2266L30.258 13Z" fill="#BE0615"/>
</svg>