<svg width="24" height="24" viewBox="0 0 24 24" fill="none" xmlns="http://www.w3.org/2000/svg">
<path d="M5.26879 9.78865C5.26754 8.91478 5.44222 8.0493 5.78275 7.24206C6.12329 6.43481 6.62296 5.70176 7.25299 5.08513C7.88302 4.46849 8.63095 3.98045 9.45371 3.64912C10.2765 3.31779 11.1578 3.14972 12.0469 3.15458C15.7594 3.18222 18.7313 6.21363 18.7313 9.87158V10.5258C18.7313 13.8244 19.4344 15.7409 20.0532 16.7913C20.1189 16.9031 20.1535 17.03 20.1537 17.1592C20.1538 17.2884 20.1193 17.4153 20.0538 17.5273C19.9883 17.6393 19.894 17.7324 19.7804 17.7972C19.6667 17.8621 19.5377 17.8965 19.4063 17.897H4.59379C4.46237 17.8965 4.33337 17.8621 4.21972 17.7972C4.10607 17.7324 4.01177 17.6393 3.94626 17.5273C3.88074 17.4153 3.84632 17.2884 3.84644 17.1592C3.84655 17.03 3.8812 16.9031 3.94692 16.7913C4.56567 15.7409 5.26879 13.8244 5.26879 10.5258V9.78865Z" stroke="#BE0615" stroke-width="1.5" stroke-linecap="round" stroke-linejoin="round"/>
<path d="M9 17.897V18.6341C9 19.4161 9.31607 20.166 9.87868 20.719C10.4413 21.2719 11.2044 21.5826 12 21.5826C12.7956 21.5826 13.5587 21.2719 14.1213 20.719C14.6839 20.166 15 19.4161 15 18.6341V17.897" stroke="#BE0615" stroke-width="1.5" stroke-linecap="round" stroke-linejoin="round"/>
</svg>
