<svg width="200" height="200" viewBox="0 0 200 200" fill="none" xmlns="http://www.w3.org/2000/svg">
<g id="ph:wine-fill">
<path id="Vector" d="M160.414 74.7422L143.406 16.9844C143.025 15.6903 142.236 14.5543 141.156 13.7461C140.076 12.9378 138.763 12.5007 137.414 12.5H62.5861C61.2371 12.5007 59.9246 12.9378 58.8446 13.7461C57.7645 14.5543 56.975 15.6903 56.5939 16.9844L39.5861 74.7422C36.9177 83.5949 36.778 93.0175 39.1829 101.945C41.5878 110.873 46.4414 118.951 53.1955 125.266C64.3063 135.684 78.5811 142.088 93.7502 143.461V175H68.7502C67.0926 175 65.5029 175.658 64.3308 176.831C63.1586 178.003 62.5002 179.592 62.5002 181.25C62.5002 182.908 63.1586 184.497 64.3308 185.669C65.5029 186.842 67.0926 187.5 68.7502 187.5H131.25C132.908 187.5 134.497 186.842 135.67 185.669C136.842 184.497 137.5 182.908 137.5 181.25C137.5 179.592 136.842 178.003 135.67 176.831C134.497 175.658 132.908 175 131.25 175H106.25V143.461C121.42 142.089 135.695 135.685 146.805 125.266C153.557 118.95 158.41 110.872 160.815 101.945C163.22 93.0172 163.081 83.5951 160.414 74.7422ZM67.258 25H132.742L148.438 78.2734C148.508 78.5078 148.57 78.7422 148.633 78.9766C131.899 84.9766 113.055 77.7266 102.828 72.5469C83.1486 62.5859 67.5236 61.3203 56.0002 63.2266L67.258 25Z" fill="#BE0615"/>
</g>
</svg>
