<svg width="16" height="13" viewBox="0 0 16 13" fill="none" xmlns="http://www.w3.org/2000/svg">
<path d="M10.6922 0.996775C11.518 0.996775 12.2636 1.33377 12.7888 1.8748C13.4422 1.7487 14.0581 1.51893 14.6115 1.20069C14.3974 1.84915 13.9419 2.39316 13.3495 2.73731C13.9292 2.66928 14.4841 2.52075 14.9991 2.29871C14.613 2.85544 14.1271 3.34563 13.5659 3.73739C13.5711 3.85626 13.5741 3.97638 13.5741 4.09599C13.5741 7.76759 10.685 12.0024 5.40191 12.0024C3.78031 12.0024 2.2699 11.5409 0.999622 10.7529C1.22687 10.7792 1.45546 10.7924 1.68424 10.7922C3.02975 10.7922 4.26879 10.3484 5.252 9.60225C3.99444 9.58082 2.93303 8.77662 2.56899 7.67337C2.74728 7.70669 2.92829 7.72345 3.10969 7.72346C3.37079 7.72346 3.62515 7.68982 3.86552 7.62602C2.55175 7.37158 1.56154 6.24839 1.56154 4.90139V4.86576C1.94908 5.0741 2.39158 5.19921 2.86307 5.21366C2.092 4.71473 1.58503 3.86544 1.58503 2.90123C1.58503 2.3916 1.72697 1.91411 1.97408 1.50516C3.3903 3.18533 5.50662 4.29182 7.89405 4.4082C7.84481 4.20533 7.81934 3.99102 7.81934 3.77546C7.81934 2.24058 9.10536 0.996775 10.6922 0.996775ZM10.6922 0C8.72977 0 7.10397 1.42998 6.85359 3.27762C5.24798 2.95589 3.78779 2.10808 2.73863 0.864273C2.64484 0.752994 2.52777 0.663524 2.39565 0.602137C2.26353 0.540751 2.11954 0.508933 1.97378 0.508916C1.94761 0.508923 1.92144 0.50992 1.89534 0.511907C1.73692 0.524561 1.5838 0.574647 1.44863 0.658023C1.31346 0.741398 1.20014 0.855669 1.11803 0.991385C0.769587 1.56803 0.585487 2.22855 0.585555 2.90182C0.585555 3.35115 0.666495 3.78876 0.819925 4.19796C0.656516 4.37914 0.562318 4.61613 0.562318 4.86634V4.90198C0.562318 5.87839 0.949353 6.7845 1.592 7.4636C1.55502 7.63456 1.56326 7.81349 1.61973 7.98494C1.84137 8.65754 2.2449 9.23722 2.76811 9.67879C2.41679 9.75681 2.05426 9.79618 1.6842 9.79618C1.48855 9.79618 1.29816 9.78547 1.11801 9.76352C1.07803 9.75854 1.03855 9.75679 0.998826 9.75679C0.579059 9.75679 0.19802 10.0207 0.0565989 10.4232C-0.098565 10.8643 0.0736051 11.3532 0.471369 11.6002C1.94756 12.5163 3.6526 13 5.40163 13C11.0865 13 14.5061 8.56134 14.5725 4.22559C15.039 3.84066 15.4511 3.39451 15.7976 2.8993C15.9292 2.72699 16.0003 2.5163 16 2.2997C16 1.96053 15.8299 1.66073 15.5708 1.48054C15.6829 1.097 15.555 0.681821 15.2427 0.428126C15.0603 0.280096 14.8366 0.204834 14.6118 0.204834C14.4365 0.20467 14.2643 0.250662 14.1125 0.338161C13.7822 0.528074 13.4289 0.678347 13.0569 0.78652C12.3837 0.281373 11.5492 1.55756e-05 10.6922 0Z" fill="white"/>
</svg>
