<svg width="30" height="30" viewBox="0 0 30 30" fill="none" xmlns="http://www.w3.org/2000/svg">
<g id="foundation:social-facebook">
<path id="Vector" d="M24.607 4.2002H5.39142C5.07523 4.2002 4.77199 4.3258 4.54841 4.54938C4.32483 4.77296 4.19922 5.0762 4.19922 5.3924V24.6083C4.1993 24.9244 4.32494 25.2276 4.54851 25.4511C4.77208 25.6746 5.07528 25.8002 5.39142 25.8002H15.7363V17.4356H12.9214V14.1758H15.7363V11.7716C15.7363 8.9816 17.4403 7.4627 19.9291 7.4627C21.1213 7.4627 22.1458 7.5512 22.4446 7.5911V10.5068L20.7184 10.5077C19.3648 10.5077 19.1029 11.1509 19.1029 12.0947V14.1761H22.3309L21.9106 17.4359H19.1029V25.8002H24.6073C24.9235 25.8001 25.2266 25.6745 25.4501 25.4509C25.6737 25.2273 25.7992 24.9241 25.7992 24.608V5.3924C25.7992 5.0762 25.6736 4.77296 25.45 4.54938C25.2265 4.3258 24.9232 4.2002 24.607 4.2002Z" fill="white"/>
</g>
</svg>
