<svg width="24" height="24" viewBox="0 0 24 24" fill="none" xmlns="http://www.w3.org/2000/svg">
<g id="iconamoon:location-pin-light">
<g id="Group">
<path id="Vector" d="M12 11H12.01V11.01H12V11Z" stroke="white" stroke-width="2.25" stroke-linejoin="round"/>
<path id="Vector_2" d="M12.0007 21.9999L17.5007 16.4999C18.5884 15.4121 19.3291 14.0262 19.6292 12.5175C19.9293 11.0087 19.7753 9.4448 19.1866 8.02358C18.5979 6.60235 17.6009 5.38762 16.3218 4.53297C15.0428 3.67833 13.539 3.22217 12.0007 3.22217C10.4623 3.22217 8.95855 3.67833 7.67947 4.53297C6.40039 5.38762 5.40347 6.60235 4.81476 8.02358C4.22605 9.4448 4.072 11.0087 4.37209 12.5175C4.67217 14.0262 5.41292 15.4121 6.50066 16.4999L12.0007 21.9999Z" stroke="white" stroke-width="1.5" stroke-linejoin="round"/>
</g>
</g>
</svg>
