<svg width="30" height="30" viewBox="0 0 30 30" fill="none" xmlns="http://www.w3.org/2000/svg">
<g id="simple-line-icons:social-twitter" clip-path="url(#clip0_1550_15569)">
<path id="Vector" d="M20.0512 4.6493C21.6005 4.6493 22.9991 5.28316 23.9844 6.30082C25.2102 6.06363 26.3657 5.63145 27.404 5.03285C27.0023 6.25257 26.1477 7.27582 25.0364 7.92316C26.1239 7.7952 27.165 7.51582 28.1311 7.09816C27.4068 8.14535 26.4951 9.06738 25.4423 9.80426C25.4522 10.0279 25.4578 10.2538 25.4578 10.4788C25.4578 17.3849 20.0376 25.3503 10.1264 25.3503C7.08421 25.3503 4.25062 24.4822 1.86752 23C2.29385 23.0496 2.7227 23.0743 3.1519 23.074C5.67611 23.074 8.00062 22.2392 9.84515 20.8358C7.48593 20.7954 5.49468 19.2828 4.81171 17.2076C5.1462 17.2703 5.48578 17.3018 5.82608 17.3019C6.31593 17.3019 6.79312 17.2386 7.24405 17.1186C4.77937 16.64 2.92171 14.5273 2.92171 11.9937V11.9267C3.64874 12.3185 4.4789 12.5539 5.36343 12.581C3.91687 11.6426 2.96577 10.0451 2.96577 8.23148C2.96577 7.27289 3.23205 6.37477 3.69564 5.60555C6.35252 8.76586 10.3228 10.8471 14.8017 11.066C14.7094 10.6844 14.6616 10.2813 14.6616 9.87586C14.6616 6.98883 17.0742 4.6493 20.0512 4.6493ZM20.0512 2.77441C16.3696 2.77441 13.3195 5.46413 12.8498 8.93944C9.83762 8.33429 7.09824 6.7396 5.12996 4.40007C4.95401 4.19076 4.7344 4.02247 4.48653 3.907C4.23866 3.79154 3.96853 3.73169 3.69509 3.73166C3.64598 3.73167 3.59689 3.73355 3.54793 3.73729C3.25073 3.76109 2.96346 3.8553 2.70988 4.01212C2.4563 4.16895 2.2437 4.38388 2.08965 4.63916C1.43596 5.72379 1.09058 6.96621 1.09071 8.2326C1.09071 9.07775 1.24256 9.90088 1.5304 10.6706C1.22384 11.0113 1.04712 11.4571 1.04712 11.9278V11.9948C1.04712 13.8314 1.77321 15.5357 2.97884 16.8131C2.90946 17.1346 2.92493 17.4712 3.03087 17.7937C3.44668 19.0588 4.20371 20.1492 5.18527 20.9797C4.52618 21.1265 3.84606 21.2005 3.15181 21.2005C2.78478 21.2005 2.42759 21.1804 2.08962 21.1391C2.01462 21.1297 1.94056 21.1264 1.86603 21.1264C1.07853 21.1264 0.363682 21.6229 0.0983694 22.3799C-0.192724 23.2096 0.130274 24.1293 0.876494 24.5938C3.6459 26.3169 6.84462 27.2268 10.1259 27.2268C20.7909 27.2268 27.2062 18.8779 27.3309 10.7225C28.206 9.9985 28.9791 9.15931 29.6292 8.22785C29.876 7.90374 30.0094 7.50745 30.0088 7.10004C30.0088 6.46207 29.6897 5.89816 29.2036 5.55923C29.414 4.83782 29.174 4.05688 28.5881 3.5797C28.2459 3.30126 27.8263 3.1597 27.4045 3.1597C27.0756 3.15939 26.7526 3.2459 26.4679 3.41048C25.8482 3.7677 25.1854 4.05035 24.4874 4.25382C23.2246 3.30366 21.659 2.77444 20.0512 2.77441Z" fill="white"/>
</g>
<defs>
<clipPath id="clip0_1550_15569">
<rect width="30" height="30" fill="white"/>
</clipPath>
</defs>
</svg>
