<svg width="20" height="20" viewBox="0 0 20 20" fill="none" xmlns="http://www.w3.org/2000/svg">
<path id="Vector" d="M4.31818 3.89199H19L17.2727 11.4459H6.04545M6.04545 11.4459L3.45455 1.37402H0M6.04545 11.4459L6.90909 14.8032H18.1364M16.4091 18.9998C16.18 18.9998 15.9604 18.9114 15.7984 18.754C15.6364 18.5966 15.5455 18.3831 15.5455 18.1605C15.5455 17.9379 15.6364 17.7244 15.7984 17.567C15.9604 17.4096 16.18 17.3212 16.4091 17.3212C16.6381 17.3212 16.8578 17.4096 17.0198 17.567C17.1817 17.7244 17.2727 17.9379 17.2727 18.1605C17.2727 18.3831 17.1817 18.5966 17.0198 18.754C16.8578 18.9114 16.6381 18.9998 16.4091 18.9998ZM7.77273 18.9998C7.54368 18.9998 7.32401 18.9114 7.16204 18.754C7.00008 18.5966 6.90909 18.3831 6.90909 18.1605C6.90909 17.9379 7.00008 17.7244 7.16204 17.567C7.32401 17.4096 7.54368 17.3212 7.77273 17.3212C8.00178 17.3212 8.22145 17.4096 8.38341 17.567C8.54537 17.7244 8.63636 17.9379 8.63636 18.1605C8.63636 18.3831 8.54537 18.5966 8.38341 18.754C8.22145 18.9114 8.00178 18.9998 7.77273 18.9998Z" stroke="white"/>
</svg>
