<svg width="31" height="31" viewBox="0 0 31 31" fill="none" xmlns="http://www.w3.org/2000/svg">
<g id="system-uicons:enter">
<g id="Group">
<path id="Vector" d="M14.0241 19.9284L18.4527 15.4999M18.4527 15.4999L14.0241 11.0713M18.4527 15.4999H5.16699" stroke="white" stroke-linecap="round" stroke-linejoin="round"/>
<path id="Vector_2" d="M6.64355 12.5474V8.10706C6.64355 7.32609 6.95298 6.57692 7.50411 6.02358C8.05524 5.47024 8.80315 5.15781 9.58413 5.15468L21.3228 5.10745C21.7106 5.10589 22.095 5.18077 22.4539 5.3278C22.8128 5.47483 23.1392 5.69113 23.4144 5.96434C23.6897 6.23756 23.9084 6.56233 24.0582 6.92011C24.2079 7.27789 24.2856 7.66166 24.287 8.04949L24.346 22.8542C24.3476 23.2419 24.2728 23.6261 24.1258 23.9849C23.9789 24.3437 23.7627 24.6701 23.4897 24.9453C23.2166 25.2206 22.892 25.4393 22.5344 25.5891C22.1768 25.739 21.7932 25.8169 21.4055 25.8184H9.59594C8.81292 25.8184 8.06197 25.5073 7.50829 24.9537C6.95461 24.4 6.64355 23.649 6.64355 22.866V18.4522" stroke="white" stroke-linecap="round" stroke-linejoin="round"/>
</g>
</g>
</svg>
