<svg width="276" height="121" viewBox="0 0 276 121" fill="none" xmlns="http://www.w3.org/2000/svg">
<path d="M1.47302 0.130196C6.21231 0.463228 9.99093 1.7185 13.7696 4.22904C15.4091 5.3178 18.0477 7.95643 19.1365 9.59597C22.5693 14.7579 23.4275 20.5476 21.5702 25.8248C21.0322 27.3235 20.6992 27.9767 19.0724 30.6025C15.1657 36.9429 12.937 41.4517 11.4896 45.9732C9.15836 53.223 9.5042 59.6403 12.4118 63.7007C13.1675 64.751 14.0129 65.5964 15.2298 66.493C20.6223 70.5022 27.7697 69.6568 32.778 64.418C35.1476 61.9331 36.2748 59.4353 36.3773 56.4124L36.4285 54.8754L36.2492 55.8617C35.0451 62.1508 29.089 66.9029 22.8639 66.5443C21.1987 66.4546 20.3149 66.2241 18.8291 65.5068C16.421 64.3412 14.474 62.1124 13.5774 59.4866C12.5143 56.3612 12.8986 51.0968 14.5381 46.2294C15.7549 42.5917 17.292 39.2485 20.5198 33.2284C22.7742 29.0014 23.3506 27.6949 23.9014 25.543C25.2335 20.2658 24.2088 14.8476 20.9425 9.96743C16.6772 3.55017 9.60667 -0.0875547 1.57549 0.00210755L0 0.0277253L1.47302 0.130196Z" fill="#BE0615"/>
<path d="M30.1007 36.0462C30.2288 36.2511 30.754 37.0581 31.2664 37.8394C34.4045 42.6428 36.6589 47.6767 37.6068 51.9933C37.9782 53.7353 38.0807 56.694 37.7989 58.18C37.2609 61.0363 35.9288 63.5212 33.8153 65.6346C30.8052 68.6703 26.8985 70.2075 22.2233 70.2202C18.624 70.233 15.7292 69.2083 13.193 67.018C10.7465 64.9173 8.91484 61.3053 8.58181 57.9494C8.54338 57.5267 8.47933 56.9887 8.44091 56.7582C8.32563 56.0152 8.36405 53.1203 8.51776 51.9291C8.97888 48.1761 10.2598 44.2694 12.4885 39.8247C12.9624 38.864 13.5388 37.7882 13.7438 37.4295C13.9615 37.0581 14.2305 36.597 14.3458 36.4048C14.5379 36.0846 14.5123 36.0974 14.1793 36.4817C12.8856 37.9163 11.0155 40.9264 9.59371 43.8596C7.46743 48.2403 6.58362 51.7627 6.59643 55.8231C6.59643 58.0262 6.64766 58.6025 6.92946 60.1652C7.78765 64.9429 11.2589 69.4133 15.5242 71.2705C16.8179 71.8341 18.5599 72.3338 19.5846 72.4362C20.033 72.4875 20.4813 72.5643 20.5581 72.6156C20.8783 72.8204 21.1601 79.225 21.3907 91.2525C21.4547 94.6597 21.301 105.996 21.1345 109.134C20.904 113.809 20.8015 115.641 20.7503 116.038C20.7246 116.281 20.6606 117.05 20.6222 117.728L20.5325 118.984L19.7512 118.997C14.8069 119.035 9.06854 119.663 6.63485 120.418C5.62295 120.726 5.5461 120.969 6.50676 120.815C7.19845 120.713 34.776 120.739 36.4411 120.854C36.9663 120.892 37.5555 120.944 37.7605 120.982C37.9526 121.02 38.1063 120.995 38.1063 120.931C38.1063 120.521 34.5198 119.739 30.8693 119.381C29.6909 119.266 26.9113 119.112 23.9397 119.009L23.4017 118.984L23.3248 117.536C23.2736 116.755 23.2096 115.782 23.1839 115.397C23.1071 114.309 22.979 111.516 22.8637 108.48C22.7484 105.47 22.7997 85.7447 22.9278 83.375C23.1839 78.3027 23.3889 74.5881 23.4657 73.6787L23.5426 72.6156L23.9397 72.5643C27.1803 72.1031 28.8839 71.6164 30.9589 70.5404C36.3899 67.7609 39.7715 62.3941 39.7843 56.566C39.7843 54.2092 39.4 52.0957 38.4778 49.4827C37.0304 45.3711 33.6616 39.8632 30.4338 36.2896C30.0879 35.9053 29.947 35.8156 30.1007 36.0462Z" fill="white"/>
<path d="M22.1597 43.9239C21.8139 43.988 21.2631 44.1289 20.9429 44.2313C20.3921 44.3979 20.3793 44.4107 20.7764 44.4235C21.6346 44.4491 24.2476 44.8462 25.2339 45.0895C28.7563 45.9862 30.7801 48.2533 31.3693 51.9679L31.5358 52.9542L31.6767 52.2753C32.2916 49.5086 31.1516 46.5882 28.846 45.0767C27.6035 44.257 26.3098 43.9111 24.4013 43.8599C23.5175 43.8343 22.5184 43.8599 22.1597 43.9239Z" fill="#BE0615"/>
<path d="M31.3822 45.0123C31.4335 45.1532 31.7281 45.9731 32.0355 46.8441C33.1499 49.9566 33.5726 52.3519 33.3548 54.2732C33.1243 56.3739 32.3685 57.8597 30.6778 59.5633C30.0117 60.2422 29.0638 61.062 28.5643 61.395C27.7573 61.9458 27.7061 61.997 28.116 61.9202C31.1773 61.3181 33.7263 59.1405 34.7382 56.2585C35.0584 55.3619 35.0968 55.0802 35.0968 53.5303C35.0968 52.1085 35.0456 51.6217 34.8022 50.7763C34.418 49.4442 33.6878 47.9199 32.8937 46.7287C32.1508 45.6528 31.2542 44.6152 31.3822 45.0123Z" fill="#BE0615"/>
<path d="M84.7598 65.9999C84.8398 65.9999 84.8798 66.0799 84.8798 66.2399C84.8798 66.3999 84.8398 66.4799 84.7598 66.4799C83.8531 66.4799 83.0665 66.7199 82.3998 67.1999C81.7331 67.6799 81.1731 68.4932 80.7198 69.6399L72.1998 90.9599C72.1731 91.0666 72.0265 91.1199 71.7598 91.1199C71.5465 91.1199 71.3998 91.0666 71.3198 90.9599L61.3598 69.3199C60.9065 68.2799 60.4265 67.5466 59.9198 67.1199C59.4131 66.6932 58.7598 66.4799 57.9598 66.4799C57.8798 66.4799 57.8398 66.3999 57.8398 66.2399C57.8398 66.0799 57.8798 65.9999 57.9598 65.9999L59.4798 66.0399C60.2265 66.0932 60.8265 66.1199 61.2798 66.1199C62.3465 66.1199 63.4931 66.0932 64.7198 66.0399L66.3598 65.9999C66.4398 65.9999 66.4798 66.0799 66.4798 66.2399C66.4798 66.3999 66.4398 66.4799 66.3598 66.4799C65.5331 66.4799 64.9065 66.5866 64.4798 66.7999C64.0798 67.0132 63.8798 67.3732 63.8798 67.8799C63.8798 68.1999 63.9998 68.6266 64.2398 69.1599L72.5998 87.4799L79.7998 69.4399C80.0131 68.8799 80.1198 68.4399 80.1198 68.1199C80.1198 67.5599 79.8665 67.1466 79.3598 66.8799C78.8531 66.6132 78.0665 66.4799 76.9998 66.4799C76.9198 66.4799 76.8798 66.3999 76.8798 66.2399C76.8798 66.0799 76.9198 65.9999 76.9998 65.9999L78.7198 66.0399C79.6265 66.0932 80.4531 66.1199 81.1998 66.1199C81.7598 66.1199 82.3865 66.0932 83.0798 66.0399L84.7598 65.9999ZM88.7532 70.5199C88.1932 70.5199 87.7532 70.3732 87.4332 70.0799C87.1399 69.7866 86.9932 69.3732 86.9932 68.8399C86.9932 68.3066 87.1399 67.8932 87.4332 67.5999C87.7532 67.3066 88.1932 67.1599 88.7532 67.1599C89.2866 67.1599 89.6999 67.3066 89.9932 67.5999C90.2866 67.8932 90.4332 68.3066 90.4332 68.8399C90.4332 69.3732 90.2866 69.7866 89.9932 70.0799C89.6999 70.3732 89.2866 70.5199 88.7532 70.5199ZM85.3932 90.9999C85.3399 90.9999 85.3132 90.9199 85.3132 90.7599C85.3132 90.5999 85.3399 90.5199 85.3932 90.5199C86.1132 90.5199 86.6466 90.4532 86.9932 90.3199C87.3666 90.1599 87.6199 89.8932 87.7532 89.5199C87.8866 89.1199 87.9532 88.5332 87.9532 87.7599V80.2799C87.9532 79.3199 87.8466 78.6266 87.6332 78.1999C87.4466 77.7732 87.1132 77.5599 86.6332 77.5599C86.1532 77.5599 85.5532 77.7466 84.8332 78.1199H84.7932C84.6866 78.1199 84.6066 78.0532 84.5532 77.9199C84.4999 77.7866 84.5132 77.6932 84.5932 77.6399L89.7932 75.2399L89.9532 75.1999C90.0066 75.1999 90.0732 75.2399 90.1532 75.3199C90.2332 75.3732 90.2732 75.4399 90.2732 75.5199C90.2732 75.7066 90.2599 76.2399 90.2332 77.1199C90.2066 77.9999 90.1932 79.0399 90.1932 80.2399V87.7599C90.1932 88.5599 90.2599 89.1466 90.3932 89.5199C90.5266 89.8932 90.7666 90.1599 91.1132 90.3199C91.4599 90.4532 91.9932 90.5199 92.7132 90.5199C92.7932 90.5199 92.8332 90.5999 92.8332 90.7599C92.8332 90.9199 92.7932 90.9999 92.7132 90.9999C92.0999 90.9999 91.6066 90.9866 91.2332 90.9599L89.0732 90.9199L86.9132 90.9599C86.5399 90.9866 86.0332 90.9999 85.3932 90.9999ZM114.011 90.5199C114.091 90.5199 114.131 90.5999 114.131 90.7599C114.131 90.9199 114.091 90.9999 114.011 90.9999C113.398 90.9999 112.918 90.9866 112.571 90.9599L110.411 90.9199L108.211 90.9599C107.864 90.9866 107.384 90.9999 106.771 90.9999C106.691 90.9999 106.651 90.9199 106.651 90.7599C106.651 90.5999 106.691 90.5199 106.771 90.5199C107.491 90.5199 108.024 90.4532 108.371 90.3199C108.718 90.1599 108.944 89.8932 109.051 89.5199C109.184 89.1466 109.251 88.5599 109.251 87.7599V81.2799C109.251 79.7066 108.944 78.5466 108.331 77.7999C107.744 77.0532 106.824 76.6799 105.571 76.6799C104.744 76.6799 103.904 76.9066 103.051 77.3599C102.224 77.7866 101.464 78.3866 100.771 79.1599V87.7599C100.771 88.5599 100.824 89.1466 100.931 89.5199C101.064 89.8932 101.304 90.1599 101.651 90.3199C101.998 90.4532 102.531 90.5199 103.251 90.5199C103.331 90.5199 103.371 90.5999 103.371 90.7599C103.371 90.9199 103.331 90.9999 103.251 90.9999C102.638 90.9999 102.158 90.9866 101.811 90.9599L99.6507 90.9199L97.4507 90.9599C97.1041 90.9866 96.6241 90.9999 96.0107 90.9999C95.9307 90.9999 95.8907 90.9199 95.8907 90.7599C95.8907 90.5999 95.9307 90.5199 96.0107 90.5199C96.7307 90.5199 97.2641 90.4532 97.6107 90.3199C97.9574 90.1599 98.1841 89.8932 98.2907 89.5199C98.4241 89.1466 98.4907 88.5599 98.4907 87.7599V79.8399C98.4907 78.9332 98.3841 78.2799 98.1707 77.8799C97.9574 77.4799 97.5974 77.2799 97.0907 77.2799C96.6641 77.2799 95.9441 77.4799 94.9307 77.8799H94.8507C94.7441 77.8799 94.6641 77.8266 94.6107 77.7199C94.5841 77.5866 94.6241 77.4932 94.7307 77.4399L99.3707 75.2399C99.4241 75.2132 99.5041 75.1999 99.6107 75.1999C99.8507 75.1999 100.104 75.5066 100.371 76.1199C100.638 76.7332 100.771 77.5199 100.771 78.4799C101.784 77.3066 102.784 76.4399 103.771 75.8799C104.784 75.3199 105.824 75.0399 106.891 75.0399C108.384 75.0399 109.531 75.4532 110.331 76.2799C111.131 77.1066 111.531 78.3199 111.531 79.9199V87.7599C111.531 88.5599 111.584 89.1466 111.691 89.5199C111.824 89.8932 112.064 90.1599 112.411 90.3199C112.758 90.4532 113.291 90.5199 114.011 90.5199ZM127.315 88.9199C127.422 88.9199 127.502 88.9866 127.555 89.1199C127.608 89.2266 127.595 89.3066 127.515 89.3599C126.528 90.1332 125.635 90.6799 124.835 90.9999C124.062 91.3199 123.248 91.4799 122.395 91.4799C121.275 91.4799 120.355 91.2266 119.635 90.7199C118.915 90.2132 118.555 89.3732 118.555 88.1999V78.7999C118.555 78.1066 118.502 77.6132 118.395 77.3199C118.315 77.0266 118.142 76.8399 117.875 76.7599C117.608 76.6532 117.155 76.5999 116.515 76.5999C116.408 76.5999 116.355 76.5199 116.355 76.3599C116.355 76.1732 116.408 76.0799 116.515 76.0799C117.582 76.0532 118.448 75.7732 119.115 75.2399C119.782 74.6799 120.168 73.9466 120.275 73.0399C120.275 72.9599 120.382 72.9199 120.595 72.9199C120.782 72.9199 120.875 72.9599 120.875 73.0399V75.9999C122.208 75.9732 124.062 75.8399 126.435 75.5999C126.488 75.5999 126.542 75.7066 126.595 75.9199C126.675 76.1066 126.715 76.3199 126.715 76.5599C126.715 76.7732 126.662 76.9999 126.555 77.2399C126.475 77.4532 126.382 77.5466 126.275 77.5199C124.808 77.1466 123.008 76.9332 120.875 76.8799V86.8399C120.875 87.9332 121.142 88.7466 121.675 89.2799C122.235 89.8132 123.022 90.0799 124.035 90.0799C125.262 90.0799 126.328 89.7066 127.235 88.9599L127.315 88.9199ZM147.711 88.6799C147.817 88.6799 147.884 88.7466 147.911 88.8799C147.964 88.9866 147.937 89.0532 147.831 89.0799L143.191 91.3199C143.137 91.3466 143.071 91.3599 142.991 91.3599C142.751 91.3599 142.511 91.0532 142.271 90.4399C142.057 89.7999 141.937 88.9999 141.911 88.0399C140.924 89.0532 139.924 89.8666 138.911 90.4799C137.897 91.0932 136.791 91.3999 135.591 91.3999C133.964 91.3999 132.591 90.7999 131.471 89.5999C130.377 88.3999 129.831 86.7199 129.831 84.5599C129.831 82.6399 130.284 80.9599 131.191 79.5199C132.097 78.0799 133.231 76.9732 134.591 76.1999C135.977 75.4266 137.364 75.0399 138.751 75.0399C140.244 75.0399 141.537 75.4399 142.631 76.2399C143.111 75.9732 143.484 75.6266 143.751 75.1999C143.777 75.1466 143.844 75.1466 143.951 75.1999C144.057 75.2266 144.111 75.2666 144.111 75.3199V86.7199C144.111 87.6266 144.217 88.2799 144.431 88.6799C144.644 89.0532 145.004 89.2399 145.511 89.2399C145.964 89.2399 146.671 89.0532 147.631 88.6799H147.711ZM136.951 90.0799C137.831 90.0799 138.671 89.8399 139.471 89.3599C140.297 88.8532 141.111 88.1999 141.911 87.3999V79.2399C141.911 78.2532 141.484 77.4399 140.631 76.7999C139.777 76.1599 138.817 75.8399 137.751 75.8399C136.177 75.8399 134.897 76.5466 133.911 77.9599C132.951 79.3466 132.471 81.1599 132.471 83.3999C132.471 85.3999 132.871 87.0132 133.671 88.2399C134.497 89.4666 135.591 90.0799 136.951 90.0799ZM163.36 75.1999C163.387 75.1466 163.453 75.1466 163.56 75.1999C163.667 75.2266 163.72 75.2666 163.72 75.3199V93.7999C163.72 96.3599 163.013 98.3999 161.6 99.9199C160.213 101.467 158.267 102.24 155.76 102.24C154.16 102.24 152.853 101.947 151.84 101.36C150.827 100.8 150.32 100.093 150.32 99.2399C150.32 98.7866 150.44 98.4532 150.68 98.2399C150.92 98.0266 151.2 97.9199 151.52 97.9199C151.893 97.9199 152.2 98.0132 152.44 98.1999C152.68 98.4132 152.973 98.7466 153.32 99.1999C153.827 99.8932 154.347 100.427 154.88 100.8C155.413 101.2 156.213 101.4 157.28 101.4C158.56 101.4 159.587 100.933 160.36 99.9999C161.133 99.0666 161.52 97.3199 161.52 94.7599V88.0399C160.533 89.0532 159.533 89.8666 158.52 90.4799C157.507 91.0932 156.4 91.3999 155.2 91.3999C153.573 91.3999 152.2 90.7999 151.08 89.5999C149.987 88.3999 149.44 86.7199 149.44 84.5599C149.44 82.6399 149.893 80.9599 150.8 79.5199C151.707 78.0799 152.84 76.9732 154.2 76.1999C155.587 75.4266 156.973 75.0399 158.36 75.0399C159.853 75.0399 161.147 75.4399 162.24 76.2399C162.72 75.9732 163.093 75.6266 163.36 75.1999ZM156.56 90.0799C157.44 90.0799 158.28 89.8399 159.08 89.3599C159.907 88.8532 160.72 88.1999 161.52 87.3999V79.2399C161.52 78.2532 161.093 77.4399 160.24 76.7999C159.387 76.1599 158.427 75.8399 157.36 75.8399C155.787 75.8399 154.507 76.5466 153.52 77.9599C152.56 79.3466 152.08 81.1599 152.08 83.3999C152.08 85.3999 152.48 87.0132 153.28 88.2399C154.107 89.4666 155.2 90.0799 156.56 90.0799ZM181.193 88.7599C181.273 88.7599 181.339 88.8132 181.393 88.9199C181.473 88.9999 181.486 89.0799 181.433 89.1599C179.619 90.7066 177.673 91.4799 175.593 91.4799C174.019 91.4799 172.659 91.1199 171.513 90.3999C170.366 89.6799 169.499 88.7466 168.913 87.5999C168.353 86.4266 168.073 85.1599 168.073 83.7999C168.073 82.1999 168.446 80.7466 169.193 79.4399C169.966 78.1332 171.006 77.1066 172.313 76.3599C173.619 75.5866 175.073 75.1999 176.673 75.1999C178.113 75.1999 179.233 75.5599 180.033 76.2799C180.833 76.9732 181.233 77.9332 181.233 79.1599C181.233 79.4799 181.193 79.7199 181.113 79.8799C181.059 80.0132 180.939 80.0799 180.753 80.0799L170.913 80.1599C170.779 80.8799 170.713 81.5732 170.713 82.2399C170.713 84.5599 171.273 86.4532 172.393 87.9199C173.513 89.3599 175.059 90.0799 177.033 90.0799C178.553 90.0799 179.926 89.6399 181.153 88.7599H181.193ZM175.313 75.9999C174.219 75.9999 173.299 76.3199 172.553 76.9599C171.833 77.5732 171.326 78.4532 171.033 79.5999L178.473 79.4399C178.473 78.3466 178.179 77.5066 177.593 76.9199C177.033 76.3066 176.273 75.9999 175.313 75.9999ZM229.296 65.9999C229.349 65.9999 229.376 66.0799 229.376 66.2399C229.376 66.3999 229.349 66.4799 229.296 66.4799C227.189 66.4799 225.843 67.5332 225.256 69.6399L219.016 90.9599C219.016 91.0666 218.869 91.1199 218.576 91.1199C218.309 91.1199 218.163 91.0666 218.136 90.9599L210.496 70.1599L204.256 90.9599C204.256 91.0666 204.109 91.1199 203.816 91.1199C203.576 91.1199 203.416 91.0666 203.336 90.9599L195.696 69.3199C195.349 68.2799 194.909 67.5466 194.376 67.1199C193.843 66.6932 193.149 66.4799 192.296 66.4799C192.216 66.4799 192.176 66.3999 192.176 66.2399C192.176 66.0799 192.216 65.9999 192.296 65.9999L193.816 66.0399C194.563 66.0932 195.163 66.1199 195.616 66.1199C197.003 66.1199 198.363 66.0932 199.696 66.0399C200.096 66.0132 200.629 65.9999 201.296 65.9999C201.376 65.9999 201.416 66.0799 201.416 66.2399C201.416 66.3999 201.376 66.4799 201.296 66.4799C199.243 66.4799 198.216 67.0532 198.216 68.1999C198.216 68.4399 198.283 68.7599 198.416 69.1599L204.616 86.6399L210.776 65.9999C210.829 65.9199 210.976 65.8799 211.216 65.8799C211.509 65.8799 211.656 65.9199 211.656 65.9999L219.336 86.7199L224.296 69.5199C224.403 69.1999 224.456 68.8799 224.456 68.5599C224.456 67.1732 223.203 66.4799 220.696 66.4799C220.616 66.4799 220.576 66.3999 220.576 66.2399C220.576 66.0799 220.616 65.9999 220.696 65.9999L222.696 66.0399C223.869 66.0932 224.883 66.1199 225.736 66.1199C226.269 66.1199 226.883 66.0932 227.576 66.0399L229.296 65.9999ZM233.246 70.5199C232.686 70.5199 232.246 70.3732 231.926 70.0799C231.632 69.7866 231.486 69.3732 231.486 68.8399C231.486 68.3066 231.632 67.8932 231.926 67.5999C232.246 67.3066 232.686 67.1599 233.246 67.1599C233.779 67.1599 234.192 67.3066 234.486 67.5999C234.779 67.8932 234.926 68.3066 234.926 68.8399C234.926 69.3732 234.779 69.7866 234.486 70.0799C234.192 70.3732 233.779 70.5199 233.246 70.5199ZM229.886 90.9999C229.832 90.9999 229.806 90.9199 229.806 90.7599C229.806 90.5999 229.832 90.5199 229.886 90.5199C230.606 90.5199 231.139 90.4532 231.486 90.3199C231.859 90.1599 232.112 89.8932 232.246 89.5199C232.379 89.1199 232.446 88.5332 232.446 87.7599V80.2799C232.446 79.3199 232.339 78.6266 232.126 78.1999C231.939 77.7732 231.606 77.5599 231.126 77.5599C230.646 77.5599 230.046 77.7466 229.326 78.1199H229.286C229.179 78.1199 229.099 78.0532 229.046 77.9199C228.992 77.7866 229.006 77.6932 229.086 77.6399L234.286 75.2399L234.446 75.1999C234.499 75.1999 234.566 75.2399 234.646 75.3199C234.726 75.3732 234.766 75.4399 234.766 75.5199C234.766 75.7066 234.752 76.2399 234.726 77.1199C234.699 77.9999 234.686 79.0399 234.686 80.2399V87.7599C234.686 88.5599 234.752 89.1466 234.886 89.5199C235.019 89.8932 235.259 90.1599 235.606 90.3199C235.952 90.4532 236.486 90.5199 237.206 90.5199C237.286 90.5199 237.326 90.5999 237.326 90.7599C237.326 90.9199 237.286 90.9999 237.206 90.9999C236.592 90.9999 236.099 90.9866 235.726 90.9599L233.566 90.9199L231.406 90.9599C231.032 90.9866 230.526 90.9999 229.886 90.9999ZM258.503 90.5199C258.583 90.5199 258.623 90.5999 258.623 90.7599C258.623 90.9199 258.583 90.9999 258.503 90.9999C257.89 90.9999 257.41 90.9866 257.063 90.9599L254.903 90.9199L252.703 90.9599C252.356 90.9866 251.876 90.9999 251.263 90.9999C251.183 90.9999 251.143 90.9199 251.143 90.7599C251.143 90.5999 251.183 90.5199 251.263 90.5199C251.983 90.5199 252.516 90.4532 252.863 90.3199C253.21 90.1599 253.436 89.8932 253.543 89.5199C253.676 89.1466 253.743 88.5599 253.743 87.7599V81.2799C253.743 79.7066 253.436 78.5466 252.823 77.7999C252.236 77.0532 251.316 76.6799 250.063 76.6799C249.236 76.6799 248.396 76.9066 247.543 77.3599C246.716 77.7866 245.956 78.3866 245.263 79.1599V87.7599C245.263 88.5599 245.316 89.1466 245.423 89.5199C245.556 89.8932 245.796 90.1599 246.143 90.3199C246.49 90.4532 247.023 90.5199 247.743 90.5199C247.823 90.5199 247.863 90.5999 247.863 90.7599C247.863 90.9199 247.823 90.9999 247.743 90.9999C247.13 90.9999 246.65 90.9866 246.303 90.9599L244.143 90.9199L241.943 90.9599C241.596 90.9866 241.116 90.9999 240.503 90.9999C240.423 90.9999 240.383 90.9199 240.383 90.7599C240.383 90.5999 240.423 90.5199 240.503 90.5199C241.223 90.5199 241.756 90.4532 242.103 90.3199C242.45 90.1599 242.676 89.8932 242.783 89.5199C242.916 89.1466 242.983 88.5599 242.983 87.7599V79.8399C242.983 78.9332 242.876 78.2799 242.663 77.8799C242.45 77.4799 242.09 77.2799 241.583 77.2799C241.156 77.2799 240.436 77.4799 239.423 77.8799H239.343C239.236 77.8799 239.156 77.8266 239.103 77.7199C239.076 77.5866 239.116 77.4932 239.223 77.4399L243.863 75.2399C243.916 75.2132 243.996 75.1999 244.103 75.1999C244.343 75.1999 244.596 75.5066 244.863 76.1199C245.13 76.7332 245.263 77.5199 245.263 78.4799C246.276 77.3066 247.276 76.4399 248.263 75.8799C249.276 75.3199 250.316 75.0399 251.383 75.0399C252.876 75.0399 254.023 75.4532 254.823 76.2799C255.623 77.1066 256.023 78.3199 256.023 79.9199V87.7599C256.023 88.5599 256.076 89.1466 256.183 89.5199C256.316 89.8932 256.556 90.1599 256.903 90.3199C257.25 90.4532 257.783 90.5199 258.503 90.5199ZM273.927 88.7599C274.007 88.7599 274.074 88.8132 274.127 88.9199C274.207 88.9999 274.221 89.0799 274.167 89.1599C272.354 90.7066 270.407 91.4799 268.327 91.4799C266.754 91.4799 265.394 91.1199 264.247 90.3999C263.101 89.6799 262.234 88.7466 261.647 87.5999C261.087 86.4266 260.807 85.1599 260.807 83.7999C260.807 82.1999 261.181 80.7466 261.927 79.4399C262.701 78.1332 263.741 77.1066 265.047 76.3599C266.354 75.5866 267.807 75.1999 269.407 75.1999C270.847 75.1999 271.967 75.5599 272.767 76.2799C273.567 76.9732 273.967 77.9332 273.967 79.1599C273.967 79.4799 273.927 79.7199 273.847 79.8799C273.794 80.0132 273.674 80.0799 273.487 80.0799L263.647 80.1599C263.514 80.8799 263.447 81.5732 263.447 82.2399C263.447 84.5599 264.007 86.4532 265.127 87.9199C266.247 89.3599 267.794 90.0799 269.767 90.0799C271.287 90.0799 272.661 89.6399 273.887 88.7599H273.927ZM268.047 75.9999C266.954 75.9999 266.034 76.3199 265.287 76.9599C264.567 77.5732 264.061 78.4532 263.767 79.5999L271.207 79.4399C271.207 78.3466 270.914 77.5066 270.327 76.9199C269.767 76.3066 269.007 75.9999 268.047 75.9999Z" fill="white"/>
</svg>
