<svg width="24" height="24" viewBox="0 0 24 24" fill="none" xmlns="http://www.w3.org/2000/svg">
<path d="M5 4.03125H22L20 13.0312H7M7 13.0312L4 1.03125H0M7 13.0312L8 17.0312H21M19 22.0312C18.7348 22.0312 18.4804 21.9259 18.2929 21.7384C18.1054 21.5508 18 21.2965 18 21.0312C18 20.766 18.1054 20.5117 18.2929 20.3241C18.4804 20.1366 18.7348 20.0312 19 20.0312C19.2652 20.0312 19.5196 20.1366 19.7071 20.3241C19.8946 20.5117 20 20.766 20 21.0312C20 21.2965 19.8946 21.5508 19.7071 21.7384C19.5196 21.9259 19.2652 22.0312 19 22.0312ZM9 22.0312C8.73478 22.0312 8.48043 21.9259 8.29289 21.7384C8.10536 21.5508 8 21.2965 8 21.0312C8 20.766 8.10536 20.5117 8.29289 20.3241C8.48043 20.1366 8.73478 20.0312 9 20.0312C9.26522 20.0312 9.51957 20.1366 9.70711 20.3241C9.89464 20.5117 10 20.766 10 21.0312C10 21.2965 9.89464 21.5508 9.70711 21.7384C9.51957 21.9259 9.26522 22.0312 9 22.0312Z" stroke="white" stroke-width="2"/>
</svg>
