<svg width="10" height="19" viewBox="0 0 10 19" fill="none" xmlns="http://www.w3.org/2000/svg">
<path d="M6.35748 1.22707C6.4316 1.22707 6.47424 1.23014 6.47424 1.23014H8.10074L8.09235 3.07072H6.47675C5.58767 3.07072 5.60822 3.81859 5.60822 3.81859V6.73652H8.7541L8.31501 8.57464H5.59795V17.7732H3.73135L3.73011 8.57464H1.25034L1.24536 6.73652H3.73104V3.87626C3.73131 1.38227 5.834 1.22707 6.35748 1.22707ZM6.35748 0C5.90967 0 5.03457 0.0730287 4.20559 0.565077C3.42084 1.03013 2.48567 1.98261 2.48567 3.87597V5.50916H1.24563C0.914603 5.50916 0.597275 5.63923 0.363094 5.86993C0.24739 5.98436 0.155757 6.12018 0.09345 6.26957C0.0311435 6.41897 -0.000610577 6.57901 8.89176e-06 6.74052L0.0049914 8.57865C0.00748269 9.25445 0.564597 9.8014 1.25063 9.8014H2.48476L2.486 17.7729C2.486 18.4506 3.04376 19 3.73164 19H5.59826C6.28615 19 6.8439 18.4506 6.8439 17.7729V9.8014H8.31532C8.86807 9.8014 9.35479 9.44249 9.51049 8.92009L9.94958 7.08195C10.0601 6.71109 9.98662 6.31015 9.75122 6.00122C9.63538 5.84846 9.48495 5.72444 9.31189 5.63902C9.13884 5.5536 8.94793 5.50914 8.75437 5.50918H6.85414V4.29838L8.09262 4.29777C8.77804 4.29777 9.33515 3.75204 9.33826 3.07624L9.34665 1.29793C9.34791 1.27536 9.34854 1.25275 9.34854 1.23014C9.34854 0.552499 8.79205 0.00308679 8.10416 0.00308679H6.50943C6.47362 0.00124621 6.42192 1.91727e-05 6.35748 0Z" fill="white"/>
</svg>
