<svg width="18" height="17" viewBox="0 0 18 17" fill="none" xmlns="http://www.w3.org/2000/svg">
<path d="M17.5325 16.9965H13.8772C13.6187 16.9965 13.4097 16.7905 13.4097 16.5357V10.7341C13.4097 8.74437 12.3684 8.74437 12.0248 8.74437C11.1004 8.74437 10.7072 9.46348 10.5797 9.77417C10.5195 9.91381 10.4911 10.1512 10.4911 10.4828V16.5392C10.4911 16.7941 10.2822 17 10.0236 17H6.36484C6.24087 17 6.12044 16.9511 6.0319 16.8639C5.94336 16.7766 5.89377 16.6579 5.8973 16.5357C5.8973 16.438 5.94689 6.70931 5.8973 5.71445C5.89022 5.58877 5.93626 5.4666 6.02482 5.37584C6.11338 5.28508 6.23379 5.23271 6.36482 5.23271H10.0236C10.2822 5.23271 10.4912 5.43865 10.4912 5.69347V5.96575C11.1074 5.42469 11.9965 4.97787 13.3211 4.97787C16.2503 4.97787 18 6.97456 18 10.3187V16.5357C18 16.7905 17.791 16.9965 17.5325 16.9965ZM14.3447 16.0749L17.0685 16.0749V10.3186C17.0685 7.50859 15.7049 5.89938 13.3247 5.89938C11.7344 5.89938 10.9622 6.68131 10.477 7.39691C10.4203 7.58541 10.2397 7.72506 10.0272 7.72506H10.0024C9.83236 7.72506 9.67652 7.63428 9.59508 7.48769C9.53133 7.37248 9.51715 7.23983 9.55965 7.11765V6.15074H6.843C6.8678 8.07414 6.843 14.2981 6.83592 16.0714H9.5561V10.4793C9.5561 10.015 9.60569 9.67989 9.71194 9.42507C10.1228 8.42322 10.987 7.81933 12.0213 7.81933C13.4947 7.81933 14.3412 8.88054 14.3412 10.7306V16.0749H14.3448L14.3447 16.0749ZM4.34241 16.9964H0.683608C0.425048 16.9964 0.216091 16.7905 0.216091 16.5356V5.69344C0.216091 5.43861 0.425048 5.23266 0.683608 5.23266H4.34241C4.60097 5.23266 4.80993 5.43861 4.80993 5.69342V16.5357C4.80993 16.7905 4.60097 16.9964 4.34241 16.9964V16.9964ZM1.15116 16.0749H3.87487V6.15418H1.15118V16.0749L1.15116 16.0749ZM2.51477 4.67412L2.48996 4.67411C1.0484 4.67411 0 3.68972 0 2.33531C0 0.984404 1.06612 0 2.53955 0C3.98819 0 5.02245 0.956454 5.05079 2.32484C5.05079 3.68972 3.98468 4.67412 2.51477 4.67412ZM2.53955 0.925058C1.57969 0.925058 0.93507 1.49405 0.93507 2.33883C0.93507 3.16961 1.57262 3.75256 2.48998 3.75256H2.51476C3.47109 3.75256 4.11571 3.18357 4.11571 2.33881C4.09799 1.48358 3.47817 0.925058 2.53955 0.925058Z" fill="white"/>
</svg>
