<svg width="24" height="24" viewBox="0 0 24 24" fill="none" xmlns="http://www.w3.org/2000/svg">
<g clip-path="url(#clip0_1677_5481)">
<path d="M4.929 18.2217C3.119 18.8343 2 19.6804 2 20.6152C2 22.4846 6.477 23.9998 12 23.9998C17.523 23.9998 22 22.4846 22 20.6152C22 19.6804 20.8805 18.8343 19.071 18.2217" stroke="white" stroke-linecap="round" stroke-linejoin="round"/>
<path d="M12 19.4872C12 19.4872 18.5 14.6946 18.5 9.15395C18.5 5.20297 15.59 2 12 2C8.41 2 5.5 5.20297 5.5 9.15395C5.5 14.6946 12 19.4872 12 19.4872Z" stroke="white" stroke-linejoin="round"/>
<path d="M12 12.1537C12.663 12.1537 13.2989 11.8566 13.7678 11.3276C14.2366 10.7987 14.5 10.0813 14.5 9.33321C14.5 8.58516 14.2366 7.86775 13.7678 7.3388C13.2989 6.80986 12.663 6.5127 12 6.5127C11.337 6.5127 10.7011 6.80986 10.2322 7.3388C9.76339 7.86775 9.5 8.58516 9.5 9.33321C9.5 10.0813 9.76339 10.7987 10.2322 11.3276C10.7011 11.8566 11.337 12.1537 12 12.1537Z" stroke="white" stroke-linejoin="round"/>
</g>
<defs>
<clipPath id="clip0_1677_5481">
<rect width="24" height="24" fill="white"/>
</clipPath>
</defs>
</svg>
