<svg width="31" height="31" viewBox="0 0 31 31" fill="none" xmlns="http://www.w3.org/2000/svg">
<path d="M14.0232 19.9284L18.4517 15.4999M18.4517 15.4999L14.0232 11.0713M18.4517 15.4999H5.16602" stroke="white" stroke-linecap="round" stroke-linejoin="round"/>
<path d="M6.64258 12.5474V8.10706C6.64257 7.32609 6.952 6.57692 7.50313 6.02358C8.05426 5.47024 8.80218 5.15781 9.58315 5.15468L21.3218 5.10745C21.7097 5.10589 22.094 5.18077 22.4529 5.3278C22.8118 5.47483 23.1382 5.69113 23.4135 5.96434C23.6887 6.23756 23.9075 6.56233 24.0572 6.92011C24.2069 7.27789 24.2847 7.66166 24.286 8.04949L24.3451 22.8542C24.3466 23.2419 24.2718 23.6261 24.1248 23.9849C23.9779 24.3437 23.7617 24.6701 23.4887 24.9453C23.2156 25.2206 22.891 25.4393 22.5334 25.5891C22.1758 25.739 21.7922 25.8169 21.4045 25.8184H9.59496C8.81194 25.8184 8.06099 25.5073 7.50731 24.9537C6.95363 24.4 6.64258 23.649 6.64258 22.866V18.4522" stroke="white" stroke-linecap="round" stroke-linejoin="round"/>
</svg>
